<?xml version="1.0" encoding="UTF-8" standalone="no" ?>
<!DOCTYPE svg PUBLIC "-//W3C//DTD SVG 1.1//EN" "http://www.w3.org/Graphics/SVG/1.1/DTD/svg11.dtd">
<svg xmlns="http://www.w3.org/2000/svg" xmlns:xlink="http://www.w3.org/1999/xlink" version="1.1" width="1080" height="1080" viewBox="0 0 1080 1080" xml:space="preserve">
<desc>Created with Fabric.js 5.2.4</desc>
<defs>
</defs>
<g transform="matrix(1 0 0 1 540 540)" id="29b53fc9-31db-4494-bdb1-0b73bd99d322"  >
<rect style="stroke: none; stroke-width: 1; stroke-dasharray: none; stroke-linecap: butt; stroke-dashoffset: 0; stroke-linejoin: miter; stroke-miterlimit: 4; fill: rgb(255,255,255); fill-rule: nonzero; opacity: 1; visibility: hidden;" vector-effect="non-scaling-stroke"  x="-540" y="-540" rx="0" ry="0" width="1080" height="1080" />
</g>
<g transform="matrix(1 0 0 1 540 540)" id="38f1b257-72e4-4fba-b985-fad32ecb3c9c"  >
</g>
<g transform="matrix(1 0 0 1 540 540)"  >
<g style="" vector-effect="non-scaling-stroke"   >
		<g transform="matrix(0.13 0 0 -0.13 -663.75 0)"  >
<path style="stroke: none; stroke-width: 1; stroke-dasharray: none; stroke-linecap: butt; stroke-dashoffset: 0; stroke-linejoin: miter; stroke-miterlimit: 4; fill: rgb(255,255,255); fill-rule: nonzero; opacity: 1;" vector-effect="non-scaling-stroke"  transform=" translate(-2019.41, -2074.5)" d="M 1745 4044 C 1384 3989 1038 3838 760 3613 C 658 3530 487 3353 413 3253 C 58 2775 -66 2171 75 1610 C 162 1262 328 964 579 706 C 763 518 932 396 1161 286 C 1447 149 1706 90 2020 90 C 2335 90 2594 149 2879 286 C 3109 396 3278 518 3461 706 C 3712 964 3877 1260 3966 1611 C 4039 1900 4039 2250 3966 2539 C 3877 2890 3712 3186 3461 3444 C 3278 3632 3109 3754 2879 3864 C 2680 3960 2506 4013 2289 4044 C 2157 4064 1871 4064 1745 4044 z M 2320 3362 C 2573 3302 2786 3185 2965 3005 C 3157 2813 3274 2591 3326 2323 C 3350 2203 3350 1947 3326 1827 C 3274 1559 3157 1337 2965 1145 C 2782 961 2560 841 2300 784 C 2179 757 1861 757 1740 784 C 1480 841 1258 961 1075 1145 C 881 1339 761 1569 713 1834 C 692 1955 692 2195 713 2316 C 761 2581 881 2811 1075 3005 C 1283 3215 1532 3336 1845 3384 C 1862 3386 1956 3387 2055 3385 C 2189 3382 2257 3376 2320 3362 z" stroke-linecap="round" />
</g>
		<g transform="matrix(0.13 0 0 -0.13 -663.69 0)"  >
<path style="stroke: none; stroke-width: 1; stroke-dasharray: none; stroke-linecap: butt; stroke-dashoffset: 0; stroke-linejoin: miter; stroke-miterlimit: 4; fill: rgb(255,255,255); fill-rule: nonzero; opacity: 1;" vector-effect="non-scaling-stroke"  transform=" translate(-2019.86, -2074.5)" d="M 1730 2522 C 1664 2479 1577 2382 1541 2312 C 1460 2151 1460 1998 1541 1838 C 1577 1767 1679 1655 1740 1621 L 1780 1599 L 1780 1843 L 1780 2088 L 1808 2141 C 1828 2180 1849 2203 1885 2225 C 1929 2252 1941 2255 2020 2255 C 2099 2255 2111 2252 2155 2225 C 2191 2203 2212 2180 2232 2141 L 2260 2088 L 2260 1843 L 2260 1599 L 2293 1617 C 2310 1627 2357 1667 2396 1705 C 2568 1875 2607 2098 2500 2309 C 2465 2378 2378 2476 2312 2520 L 2266 2550 L 2252 2523 C 2231 2481 2190 2441 2145 2417 C 2113 2400 2088 2395 2020 2395 C 1952 2395 1927 2400 1895 2417 C 1850 2441 1809 2481 1788 2523 L 1774 2550 L 1730 2522 z" stroke-linecap="round" />
</g>
		<g transform="matrix(0.13 0 0 -0.13 -281.55 -119.59)"  >
<path style="stroke: none; stroke-width: 1; stroke-dasharray: none; stroke-linecap: butt; stroke-dashoffset: 0; stroke-linejoin: miter; stroke-miterlimit: 4; fill: rgb(255,255,255); fill-rule: nonzero; opacity: 1;" vector-effect="non-scaling-stroke"  transform=" translate(-4885.89, -2971.41)" d="M 4830 3151 C 4719 3117 4655 3024 4679 2933 C 4713 2806 4875 2744 4993 2813 C 5046 2844 5073 2878 5090 2937 C 5101 2973 5101 2986 5086 3025 C 5049 3121 4928 3180 4830 3151 z" stroke-linecap="round" />
</g>
		<g transform="matrix(0.13 0 0 -0.13 317.61 -119.4)"  >
<path style="stroke: none; stroke-width: 1; stroke-dasharray: none; stroke-linecap: butt; stroke-dashoffset: 0; stroke-linejoin: miter; stroke-miterlimit: 4; fill: rgb(255,255,255); fill-rule: nonzero; opacity: 1;" vector-effect="non-scaling-stroke"  transform=" translate(-9379.59, -2970)" d="M 9309 3145 C 9251 3126 9184 3057 9175 3006 C 9162 2942 9177 2899 9230 2848 C 9323 2759 9452 2761 9538 2854 C 9675 3003 9512 3210 9309 3145 z" stroke-linecap="round" />
</g>
		<g transform="matrix(0.13 0 0 -0.13 694.46 -16.73)"  >
<path style="stroke: none; stroke-width: 1; stroke-dasharray: none; stroke-linecap: butt; stroke-dashoffset: 0; stroke-linejoin: miter; stroke-miterlimit: 4; fill: rgb(255,255,255); fill-rule: nonzero; opacity: 1;" vector-effect="non-scaling-stroke"  transform=" translate(-12206, -2200)" d="M 11570 2200 L 11570 1350 L 11739 1350 L 11909 1350 L 11912 1723 C 11915 2077 11916 2097 11936 2141 C 11985 2246 12068 2299 12196 2308 C 12304 2315 12364 2297 12420 2241 C 12493 2167 12493 2165 12497 1733 L 12501 1350 L 12672 1350 L 12842 1350 L 12837 1758 C 12834 2098 12830 2175 12816 2225 C 12789 2321 12750 2391 12691 2450 C 12593 2547 12482 2590 12330 2591 C 12197 2591 12089 2560 11998 2494 C 11971 2475 11941 2460 11930 2460 C 11910 2460 11910 2467 11910 2755 L 11910 3050 L 11740 3050 L 11570 3050 L 11570 2200 z" stroke-linecap="round" />
</g>
		<g transform="matrix(0.13 0 0 -0.13 868.79 -2.07)"  >
<path style="stroke: none; stroke-width: 1; stroke-dasharray: none; stroke-linecap: butt; stroke-dashoffset: 0; stroke-linejoin: miter; stroke-miterlimit: 4; fill: rgb(255,255,255); fill-rule: nonzero; opacity: 1;" vector-effect="non-scaling-stroke"  transform=" translate(-13513.5, -2090)" d="M 13240 2700 L 13240 2550 L 13145 2550 L 13050 2550 L 13050 2425 L 13050 2300 L 13145 2300 L 13240 2300 L 13240 2023 C 13240 1721 13248 1645 13287 1558 C 13317 1490 13399 1408 13465 1379 C 13525 1352 13632 1330 13700 1330 C 13771 1330 13874 1352 13932 1380 L 13977 1401 L 13938 1502 C 13916 1558 13897 1607 13894 1611 C 13892 1615 13871 1611 13848 1603 C 13788 1582 13679 1589 13643 1616 C 13583 1660 13580 1676 13580 2003 L 13580 2300 L 13740 2300 L 13900 2300 L 13900 2425 L 13900 2550 L 13740 2550 L 13580 2550 L 13580 2700 L 13580 2850 L 13410 2850 L 13240 2850 L 13240 2700 z" stroke-linecap="round" />
</g>
		<g transform="matrix(0.13 0 0 -0.13 -125.67 13.81)"  >
<path style="stroke: none; stroke-width: 1; stroke-dasharray: none; stroke-linecap: butt; stroke-dashoffset: 0; stroke-linejoin: miter; stroke-miterlimit: 4; fill: rgb(255,255,255); fill-rule: nonzero; opacity: 1;" vector-effect="non-scaling-stroke"  transform=" translate(-6055, -1970.89)" d="M 6120 2589 C 6006 2578 5931 2551 5837 2484 C 5811 2465 5781 2450 5770 2450 C 5752 2450 5750 2457 5750 2515 L 5750 2580 L 5585 2580 L 5420 2580 L 5420 1965 L 5420 1350 L 5589 1350 L 5759 1350 L 5762 1713 C 5765 2061 5766 2077 5788 2131 C 5838 2255 5947 2316 6105 2308 C 6232 2301 6297 2256 6334 2147 C 6348 2106 6350 2043 6350 1725 L 6350 1350 L 6520 1350 L 6690 1350 L 6690 1734 C 6690 2160 6683 2228 6630 2335 C 6544 2511 6345 2610 6120 2589 z" stroke-linecap="round" />
</g>
		<g transform="matrix(0.13 0 0 -0.13 187.87 14.9)"  >
<path style="stroke: none; stroke-width: 1; stroke-dasharray: none; stroke-linecap: butt; stroke-dashoffset: 0; stroke-linejoin: miter; stroke-miterlimit: 4; fill: rgb(255,255,255); fill-rule: nonzero; opacity: 1;" vector-effect="non-scaling-stroke"  transform=" translate(-8406.59, -1962.75)" d="M 8355 2589 C 8135 2572 7978 2485 7907 2341 C 7879 2283 7875 2266 7876 2195 C 7876 2098 7900 2041 7965 1981 C 8045 1907 8129 1878 8386 1836 C 8611 1799 8630 1788 8630 1703 C 8630 1658 8626 1645 8605 1626 C 8569 1592 8508 1580 8377 1580 C 8250 1580 8116 1608 8013 1655 C 7982 1669 7955 1679 7954 1677 C 7952 1675 7928 1627 7901 1569 C 7869 1500 7855 1461 7862 1453 C 7875 1436 7986 1394 8076 1371 C 8317 1310 8560 1322 8734 1405 C 8966 1515 9026 1782 8854 1939 C 8786 2001 8730 2022 8537 2060 C 8272 2112 8243 2119 8216 2147 C 8183 2180 8180 2245 8210 2283 C 8247 2330 8309 2345 8460 2344 C 8584 2344 8602 2341 8680 2313 C 8727 2297 8772 2280 8781 2276 C 8803 2266 8910 2487 8889 2501 C 8858 2521 8690 2569 8615 2579 C 8503 2594 8447 2596 8355 2589 z" stroke-linecap="round" />
</g>
		<g transform="matrix(0.13 0 0 -0.13 469.06 45.02)"  >
<path style="stroke: none; stroke-width: 1; stroke-dasharray: none; stroke-linecap: butt; stroke-dashoffset: 0; stroke-linejoin: miter; stroke-miterlimit: 4; fill: rgb(255,255,255); fill-rule: nonzero; opacity: 1;" vector-effect="non-scaling-stroke"  transform=" translate(-10515.52, -1736.86)" d="M 10373 2588 C 10223 2573 10102 2514 9995 2406 C 9735 2143 9790 1700 10106 1507 C 10322 1376 10607 1382 10782 1521 C 10802 1537 10829 1550 10841 1550 C 10862 1550 10863 1548 10858 1458 C 10852 1342 10825 1275 10764 1221 C 10696 1161 10631 1145 10465 1145 C 10305 1145 10214 1165 10100 1226 C 10065 1244 10033 1257 10028 1252 C 10024 1248 9996 1200 9965 1145 L 9910 1045 L 9932 1026 C 9995 973 10170 913 10331 889 C 10448 872 10664 883 10760 910 C 10933 959 11060 1058 11123 1192 C 11195 1342 11193 1329 11197 1988 L 11201 2580 L 11041 2580 L 10880 2580 L 10880 2505 C 10880 2433 10879 2430 10857 2430 C 10844 2430 10821 2444 10805 2460 C 10759 2508 10691 2546 10615 2568 C 10530 2593 10468 2598 10373 2588 z M 10652 2310 C 10758 2280 10841 2185 10860 2072 C 10887 1908 10822 1771 10685 1708 C 10642 1688 10619 1685 10520 1685 C 10417 1685 10399 1688 10350 1711 C 10275 1746 10239 1778 10205 1842 C 10168 1909 10159 2027 10184 2112 C 10213 2213 10315 2300 10429 2321 C 10483 2330 10599 2325 10652 2310 z" stroke-linecap="round" />
</g>
		<g transform="matrix(0.13 0 0 -0.13 -281.67 14.6)"  >
<path style="stroke: none; stroke-width: 1; stroke-dasharray: none; stroke-linecap: butt; stroke-dashoffset: 0; stroke-linejoin: miter; stroke-miterlimit: 4; fill: rgb(255,255,255); fill-rule: nonzero; opacity: 1;" vector-effect="non-scaling-stroke"  transform=" translate(-4885, -1965)" d="M 4720 1965 L 4720 1350 L 4885 1350 L 5050 1350 L 5050 1965 L 5050 2580 L 4885 2580 L 4720 2580 L 4720 1965 z" stroke-linecap="round" />
</g>
		<g transform="matrix(0.13 0 0 -0.13 317.66 14.6)"  >
<path style="stroke: none; stroke-width: 1; stroke-dasharray: none; stroke-linecap: butt; stroke-dashoffset: 0; stroke-linejoin: miter; stroke-miterlimit: 4; fill: rgb(255,255,255); fill-rule: nonzero; opacity: 1;" vector-effect="non-scaling-stroke"  transform=" translate(-9380, -1965)" d="M 9210 1965 L 9210 1350 L 9380 1350 L 9550 1350 L 9550 1965 L 9550 2580 L 9380 2580 L 9210 2580 L 9210 1965 z" stroke-linecap="round" />
</g>
		<g transform="matrix(0.13 0 0 -0.13 43.66 24.6)"  >
<path style="stroke: none; stroke-width: 1; stroke-dasharray: none; stroke-linecap: butt; stroke-dashoffset: 0; stroke-linejoin: miter; stroke-miterlimit: 4; fill: rgb(255,255,255); fill-rule: nonzero; opacity: 1;" vector-effect="non-scaling-stroke"  transform=" translate(-7325, -1890)" d="M 7010 1890 L 7010 1760 L 7325 1760 L 7640 1760 L 7640 1890 L 7640 2020 L 7325 2020 L 7010 2020 L 7010 1890 z" stroke-linecap="round" />
</g>
</g>
</g>
</svg>